<?xml version="1.0" encoding="UTF-8"?>
<!-- Generator: visioncortex VTracer 0.6.4 -->
<svg version="1.1" xmlns="http://www.w3.org/2000/svg" width="422" height="339" viewBox="0 0 422 339">
<!-- Background removed for transparent logo -->
<path d="M0 0 C3.96 0 7.92 0 12 0 C12 12.21 12 24.42 12 37 C14.97 37.33 17.94 37.66 21 38 C23.83 38.88 26.51 39.78 29.25 40.88 C29.93 41.13 30.61 41.39 31.31 41.65 C35.19 43.15 38.4 44.84 42 47 C42 34.79 42 22.58 42 10 C45.96 10 49.92 10 54 10 C53.99 11.36 53.99 12.71 53.98 14.11 C53.97 19.16 54 24.22 54.04 29.27 C54.06 31.45 54.06 33.64 54.04 35.82 C54.03 38.96 54.06 42.11 54.1 45.25 C54.08 46.71 54.08 46.71 54.05 48.19 C54.16 53.37 54.66 56.25 58.41 59.98 C59.6 60.99 60.8 62 62 63 C76.98 81.68 82.65 102.29 81 126 C78.66 145.8 68.25 164.64 53 177.44 C51.02 178.99 49.02 180.51 47 182 C46.26 182.56 45.52 183.12 44.75 183.7 C26.9 195.8 3.55 198.11 -17.29 194.42 C-23.23 193.03 -28.67 191.15 -34.06 188.31 C-34.74 187.96 -35.41 187.62 -36.11 187.26 C-55.15 177.2 -69.27 161.55 -76 141 C-82.31 120.49 -81.44 100.59 -72 81 C-71.37 79.63 -71.37 79.63 -70.73 78.23 C-66.47 69.63 -59.95 61.25 -51.88 55.95 C-49.91 54.31 -49.1 53.39 -48.44 50.89 C-48.21 48.28 -48.17 45.73 -48.2 43.11 C-48.17 41.68 -48.17 41.68 -48.15 40.23 C-48.12 37.22 -48.12 34.2 -48.12 31.19 C-48.11 29.14 -48.09 27.09 -48.06 25.04 C-48.01 20.03 -48 15.01 -48 10 C-43.71 10 -39.42 10 -35 10 C-35 21.22 -35 32.44 -35 44 C-32.36 42.68 -29.72 41.36 -27 40 C-18.09 36.57 -9.72 36.61 0 36 C0 24.12 0 12.24 0 0 Z " fill="#F40D46" transform="translate(192,43)"/>
<path d="M0 0 C1.44 -0.03 2.87 -0.05 4.31 -0.06 C5.51 -0.08 5.51 -0.08 6.74 -0.1 C9 0 9 0 12 1 C12.33 22.45 12.66 43.9 13 66 C19.12 57.89 19.12 57.89 19.8 48.91 C19.82 48.07 19.83 47.24 19.85 46.38 C19.88 43.76 19.88 41.13 19.88 38.5 C19.89 36.71 19.91 34.91 19.94 33.12 C19.99 28.74 20 24.37 20 20 C23.96 20 27.92 20 32 20 C31.99 21.1 31.98 22.2 31.96 23.33 C31.93 27.45 31.95 31.57 31.99 35.69 C32 37.46 31.99 39.24 31.97 41.01 C31.94 43.58 31.97 46.14 32 48.71 C31.98 49.49 31.96 50.27 31.94 51.07 C32.15 59.38 34.98 60.47 41 68 C41.33 50.18 41.66 32.36 42 14 C44.31 15.98 46.62 17.96 49 20 C49.95 20.78 50.91 21.56 51.89 22.36 C54.71 25.89 54.75 28.94 54.74 33.29 C54.76 34.11 54.78 34.93 54.8 35.78 C54.85 38.49 54.87 41.2 54.88 43.91 C54.89 45.81 54.91 47.7 54.93 49.6 C54.97 53.57 54.98 57.54 54.98 61.52 C54.99 66.58 55.06 71.65 55.16 76.72 C55.23 80.63 55.24 84.55 55.24 88.46 C55.25 90.33 55.27 92.2 55.32 94.06 C55.66 110.14 55.66 110.14 50.27 116.07 C47.98 118.27 45.58 120.16 43 122 C41.96 122.75 40.91 123.49 39.84 124.26 C36.54 126.28 34.8 126.51 31 126 C29.51 125.01 29.51 125.01 28 124 C25.97 124.26 25.97 124.26 24 125 C18.22 126.93 12.15 126.94 6.56 124.5 C1.91 119.96 -0.19 115.22 -0.48 108.71 C-0.49 106.68 -0.48 104.65 -0.45 102.63 C-0.45 101.51 -0.46 100.4 -0.46 99.25 C-0.45 95.6 -0.42 91.94 -0.39 88.28 C-0.38 85.74 -0.38 83.19 -0.37 80.65 C-0.36 74.65 -0.33 68.65 -0.29 62.65 C-0.24 55.82 -0.22 48.98 -0.2 42.15 C-0.16 28.1 -0.09 14.05 0 0 Z " fill="#020202" transform="translate(192,91)"/>
<path d="M0 0 C4.72 2.65 7.66 6 9.59 11.11 C10.13 15.29 10.06 19.41 9.98 23.61 C9.98 24.8 9.97 25.99 9.97 27.21 C9.94 30.99 9.89 34.77 9.84 38.55 C9.82 41.12 9.81 43.69 9.79 46.26 C9.75 52.54 9.68 58.83 9.59 65.11 C10.58 65.11 11.57 65.11 12.59 65.11 C12.59 69.73 12.59 74.35 12.59 79.11 C11.6 79.11 10.61 79.11 9.59 79.11 C9.59 89.67 9.59 100.23 9.59 111.11 C4.64 111.11 -0.31 111.11 -5.41 111.11 C-5.41 100.88 -5.41 90.65 -5.41 80.11 C-9.37 80.11 -13.33 80.11 -17.41 80.11 C-17.41 90.34 -17.41 100.57 -17.41 111.11 C-28.41 111.11 -28.41 111.11 -31.07 109.51 C-32.79 106.42 -32.86 104.35 -32.8 100.82 C-32.78 99.61 -32.77 98.41 -32.76 97.16 C-32.72 95.91 -32.69 94.66 -32.66 93.36 C-32.64 92.09 -32.62 90.82 -32.6 89.52 C-32.55 86.38 -32.49 83.25 -32.41 80.11 C-34.06 80.11 -35.71 80.11 -37.41 80.11 C-37.41 75.16 -37.41 70.21 -37.41 65.11 C-35.76 65.11 -34.11 65.11 -32.41 65.11 C-32.43 64.48 -32.45 63.85 -32.47 63.2 C-32.7 56.6 -32.85 50 -32.96 43.39 C-33.01 40.93 -33.07 38.47 -33.16 36.01 C-33.9 14.4 -33.9 14.4 -30.27 9.55 C-27.74 7.26 -25.42 5.69 -22.41 4.11 C-21.1 3.11 -19.81 2.09 -18.53 1.05 C-12.89 -2.23 -6.05 -2.23 0 0 Z " fill="#010000" transform="translate(175.40625,98.88671875)"/>
<path d="M0 0 C0 0.58 0 1.16 0 1.76 C0.04 15.9 0.1 30.04 0.18 44.18 C0.22 51.01 0.26 57.85 0.27 64.69 C0.29 71.29 0.32 77.89 0.37 84.49 C0.38 87.01 0.39 89.53 0.39 92.04 C0.39 95.57 0.42 99.1 0.45 102.63 C0.45 103.66 0.44 104.7 0.44 105.77 C0.53 112.02 1.43 116.78 5 122 C8.87 125.75 13.27 125.32 18.38 125.3 C21.05 124.99 22.66 124.27 25 123 C26.88 123.25 26.88 123.25 29 124 C30.07 124.35 31.14 124.7 32.25 125.06 C33.61 125.53 33.61 125.53 35 126 C33.46 129.09 30.99 129.32 27.81 130.5 C26.68 130.92 25.56 131.35 24.39 131.78 C22.71 132.38 22.71 132.38 21 133 C19.61 133.56 19.61 133.56 18.2 134.14 C13.79 135.33 9.61 135.3 5.06 135.25 C4.13 135.24 3.2 135.23 2.24 135.22 C-0.51 135.17 -3.25 135.1 -6 135 C-6.72 134.97 -7.44 134.95 -8.18 134.92 C-21.13 134.29 -32.67 128.61 -43 121 C-43 120.34 -43 119.68 -43 119 C-40.03 119 -37.06 119 -34 119 C-34 108.77 -34 98.54 -34 88 C-30.04 88 -26.08 88 -22 88 C-22 98.23 -22 108.46 -22 119 C-17.05 119 -12.1 119 -7 119 C-7 108.44 -7 97.88 -7 87 C-6.01 87 -5.02 87 -4 87 C-4 82.38 -4 77.76 -4 73 C-4.99 73 -5.98 73 -7 73 C-7.01 72.01 -7.01 72.01 -7.01 71 C-7.05 64.1 -7.12 57.21 -7.21 50.31 C-7.24 47.74 -7.26 45.17 -7.27 42.6 C-7.29 38.9 -7.34 35.2 -7.39 31.5 C-7.39 30.35 -7.39 29.21 -7.39 28.03 C-7.51 21.49 -8.03 17.28 -12 12 C-17.42 7.88 -22.29 7.27 -29 7 C-25.35 3.65 -21.45 2.86 -16.75 1.81 C-16.02 1.64 -15.3 1.46 -14.55 1.28 C-9.57 0.13 -5.1 -0.03 0 0 Z " fill="#F5F3F4" transform="translate(192,91)"/>
<path d="M0 0 C11.35 2.27 11.35 2.27 16.12 4.31 C17.06 4.7 17.99 5.09 18.95 5.49 C19.95 5.99 20.96 6.49 22 7 C22.67 7.26 23.33 7.52 24.02 7.79 C26.48 8.96 28.13 10.01 30 12 C31.14 16.24 30.93 20.37 30.78 24.74 C30.77 25.97 30.76 27.21 30.75 28.48 C30.71 31.76 30.64 35.03 30.55 38.3 C30.47 41.65 30.43 44.99 30.39 48.34 C30.3 54.89 30.17 61.45 30 68 C28.31 66.35 26.65 64.69 25 63 C24.08 62.09 23.16 61.18 22.22 60.24 C19.31 56 19.35 53.11 19.51 48.1 C19.52 47.27 19.53 46.43 19.53 45.57 C19.56 42.92 19.62 40.27 19.69 37.62 C19.71 35.82 19.74 34.02 19.76 32.21 C19.81 27.81 19.9 23.4 20 19 C16.04 19 12.08 19 8 19 C8.04 20.1 8.07 21.21 8.11 22.35 C8.24 26.48 8.32 30.61 8.38 34.74 C8.42 36.52 8.47 38.3 8.53 40.09 C9.08 56.79 9.08 56.79 4.54 62.72 C2.61 64.72 2.61 64.72 1 66 C0.67 66 0.34 66 0 66 C0 44.22 0 22.44 0 0 Z " fill="#FCFCFC" transform="translate(204,92)"/>
<path d="M0 0 C0.33 0 0.66 0 1 0 C1 16.83 1 33.66 1 51 C-0.65 51 -2.3 51 -4 51 C-4 55.95 -4 60.9 -4 66 C-2.35 66 -0.7 66 1 66 C1 74.58 1 83.16 1 92 C-13.46 77.54 -17.33 61.57 -17.39 41.63 C-17.17 25.33 -11.02 12 0 0 Z " fill="#FDFAFB" transform="translate(142,113)"/>
<path d="M0 0 C0.5 7.43 0.5 7.43 1 15 C1.66 15 2.32 15 3 15 C2.9 16.04 2.81 17.08 2.71 18.15 C2.05 26.1 1.74 33.23 4 41 C3.34 41 2.68 41 2 41 C0.71 36.88 -0.26 33.33 0 29 C-1.32 28.67 -2.64 28.34 -4 28 C-4 27.34 -4 26.68 -4 26 C-4.66 26 -5.32 26 -6 26 C-6 26.99 -6 27.98 -6 29 C-7.32 29 -8.64 29 -10 29 C-10.34 29.7 -10.68 30.4 -11.02 31.12 C-11.69 32.48 -11.69 32.48 -12.38 33.88 C-12.82 34.78 -13.26 35.68 -13.71 36.62 C-15 39 -15 39 -17 41 C-18.32 41 -19.64 41 -21 41 C-22.69 37.95 -23.49 35.17 -24.12 31.75 C-24.29 30.86 -24.46 29.97 -24.63 29.05 C-24.75 28.37 -24.88 27.7 -25 27 C-25.3 27.79 -25.3 27.79 -25.61 28.6 C-26.53 31.01 -27.45 33.41 -28.38 35.81 C-28.69 36.65 -29.01 37.48 -29.34 38.34 C-29.65 39.14 -29.95 39.94 -30.27 40.77 C-30.56 41.51 -30.84 42.25 -31.13 43.01 C-32 45 -32 45 -34 48 C-34.99 48 -35.98 48 -37 48 C-37.4 39.91 -36.18 32.47 -34.56 24.56 C-34.33 23.39 -34.1 22.22 -33.87 21.02 C-32.18 12.54 -32.18 12.54 -31 9 C-37.27 8.67 -43.54 8.34 -50 8 C-50 7.67 -50 7.34 -50 7 C-48.98 7.01 -48.98 7.01 -47.95 7.02 C-32.39 7.06 -19.27 5.54 -4.86 -0.49 C-3 -1 -3 -1 0 0 Z " fill="#F9F4F5" transform="translate(232,231)"/>
<path d="M0 0 C11.5 11.5 15.22 26.14 15.38 42.06 C15.24 55.04 11.93 65.09 6.04 76.53 C5.74 77.1 5.44 77.68 5.14 78.27 C4 80 4 80 0 84 C0 56.28 0 28.56 0 0 Z " fill="#F6F2F3" transform="translate(246,117)"/>
<path d="M0 0 C0.91 0 1.81 0.01 2.75 0.01 C4.11 0 4.11 0 5.5 0 C7.75 0.13 7.75 0.13 8.75 1.13 C8.84 2.7 8.87 4.27 8.86 5.84 C8.86 6.84 8.86 7.84 8.86 8.87 C8.86 9.96 8.85 11.05 8.85 12.17 C8.85 13.28 8.84 14.38 8.84 15.53 C8.84 19.08 8.83 22.64 8.81 26.2 C8.81 28.6 8.8 31 8.8 33.41 C8.79 39.32 8.77 45.22 8.75 51.13 C4.79 51.13 0.83 51.13 -3.25 51.13 C-3.27 44.03 -3.29 36.93 -3.3 29.83 C-3.31 27.41 -3.32 24.99 -3.33 22.57 C-3.34 19.1 -3.34 15.64 -3.35 12.17 C-3.35 11.08 -3.36 9.99 -3.36 8.87 C-3.36 7.87 -3.36 6.87 -3.36 5.84 C-3.37 4.95 -3.37 4.06 -3.37 3.15 C-3.2 0.27 -2.88 0.17 0 0 Z " fill="#F2F2F2" transform="translate(161.25,112.8671875)"/>
<path d="M0 0 C3.96 0 7.92 0 12 0 C12 15.18 12 30.36 12 46 C8 43.33 4 40.67 0 38 C-0.27 35.09 -0.35 32.4 -0.29 29.49 C-0.29 28.23 -0.29 28.23 -0.28 26.94 C-0.26 24.25 -0.23 21.57 -0.19 18.88 C-0.17 17.05 -0.16 15.23 -0.15 13.41 C-0.11 8.94 -0.06 4.47 0 0 Z " fill="#080707" transform="translate(234,53)"/>
<path d="M0 0 C3.96 0 7.92 0 12 0 C12 11.88 12 23.76 12 36 C8.04 36 4.08 36 0 36 C0 24.12 0 12.24 0 0 Z " fill="#020202" transform="translate(192,43)"/>
<path d="M0 0 C3.63 0 7.26 0 11 0 C11.22 4.73 11.39 9.46 11.49 14.2 C11.54 15.81 11.6 17.41 11.68 19.02 C12.31 32.39 12.31 32.39 9.03 36.42 C6.11 38.41 3.59 40 0 40 C0 26.8 0 13.6 0 0 Z " fill="#000000" transform="translate(145,54)"/>
<path d="M0 0 C0.66 0 1.32 0 2 0 C2.5 7.43 2.5 7.43 3 15 C3.66 15 4.32 15 5 15 C4.9 16.04 4.81 17.08 4.71 18.15 C4.05 26.1 3.74 33.23 6 41 C5.34 41 4.68 41 4 41 C2.71 36.88 1.74 33.33 2 29 C0.68 28.67 -0.64 28.34 -2 28 C-2 27.34 -2 26.68 -2 26 C-2.66 26 -3.32 26 -4 26 C-4 26.99 -4 27.98 -4 29 C-5.32 29 -6.64 29 -8 29 C-8.34 29.7 -8.68 30.4 -9.02 31.12 C-9.47 32.03 -9.92 32.94 -10.38 33.88 C-10.82 34.78 -11.26 35.68 -11.71 36.62 C-13 39 -13 39 -15 41 C-16.32 41 -17.64 41 -19 41 C-20.69 37.95 -21.49 35.17 -22.12 31.75 C-22.29 30.86 -22.46 29.97 -22.63 29.05 C-22.81 28.03 -22.81 28.03 -23 27 C-23.2 27.53 -23.4 28.06 -23.61 28.6 C-24.53 31.01 -25.45 33.41 -26.38 35.81 C-26.69 36.65 -27.01 37.48 -27.34 38.34 C-27.65 39.14 -27.95 39.94 -28.27 40.77 C-28.56 41.51 -28.84 42.25 -29.13 43.01 C-30 45 -30 45 -32 48 C-32.99 48 -33.98 48 -35 48 C-35.39 39.94 -34.21 32.51 -32.62 24.62 C-32.4 23.46 -32.18 22.3 -31.95 21.11 C-30.12 11.79 -30.12 11.79 -28 8 C-27.01 8 -26.02 8 -25 8 C-25 8.99 -25 9.98 -25 11 C-25.99 11 -26.98 11 -28 11 C-28.15 12.76 -28.15 12.76 -28.31 14.56 C-28.92 20.21 -30.15 25.71 -31.38 31.25 C-32.22 35.68 -32.22 35.68 -32 43 C-29.36 36.73 -26.72 30.46 -24 24 C-23.01 24 -22.02 24 -21 24 C-19.68 28.95 -18.36 33.9 -17 39 C-9.35 31.35 -9.16 21.34 -8 11 C-8.99 11.33 -9.98 11.66 -11 12 C-10.67 11.01 -10.34 10.02 -10 9 C-8.68 9.66 -7.36 10.32 -6 11 C-6 13.97 -6 16.94 -6 20 C-4.68 20 -3.36 20 -2 20 C-1.5 23.47 -1.5 23.47 -1 27 C-0.34 27 0.32 27 1 27 C0.86 25.79 0.71 24.59 0.56 23.34 C0.37 21.73 0.19 20.11 0 18.5 C-0.1 17.71 -0.19 16.92 -0.29 16.1 C-0.87 11.03 -1.18 6.1 -1 1 C-0.67 0.67 -0.34 0.34 0 0 Z " fill="#3B3B3B" transform="translate(230,231)"/>
<path d="M0 0 C0.77 0.77 1.54 1.54 2.33 2.34 C4.12 4.12 5.94 5.88 7.78 7.61 C11.27 11.88 10.65 16.94 10.5 22.19 C10.5 23.18 10.51 24.18 10.51 25.21 C10.41 32.47 10.41 32.47 8.63 34.78 C7 36 7 36 4.44 36.38 C3.23 36.19 3.23 36.19 2 36 C-0.43 32.36 -0.26 29.69 -0.2 25.49 C-0.19 24.76 -0.19 24.03 -0.19 23.28 C-0.18 20.96 -0.15 18.64 -0.12 16.31 C-0.11 14.74 -0.11 13.16 -0.1 11.58 C-0.08 7.72 -0.04 3.86 0 0 Z " fill="#F3F3F3" transform="translate(224,169)"/>
<path d="M0 0 C0.02 4.81 0.04 9.61 0.05 14.42 C0.06 16.05 0.07 17.69 0.08 19.32 C0.09 21.67 0.09 24.02 0.1 26.37 C0.1 27.1 0.11 27.83 0.11 28.59 C0.11 33.77 0.11 33.77 -1 36 C-3 36.04 -5 36.04 -7 36 C-9.66 33.34 -8.43 26.06 -8.5 22.5 C-8.55 21.34 -8.61 20.18 -8.66 18.98 C-8.78 11.4 -7.68 7.21 -2.61 1.49 C-1 0 -1 0 0 0 Z " fill="#FBFBFB" transform="translate(212,169)"/>
<path d="M0 0 C0.66 0 1.32 0 2 0 C1.74 1.38 1.47 2.75 1.19 4.12 C1.04 4.89 0.89 5.66 0.73 6.45 C0 9 0 9 -1.47 11.83 C-3.19 15.4 -3.95 18.67 -4.69 22.56 C-4.94 23.84 -5.19 25.12 -5.45 26.44 C-5.9 29.38 -6.12 32.03 -6 35 C-6.99 35.5 -6.99 35.5 -8 36 C-8.08 31.17 -7.95 26.76 -7 22 C-8.07 22.37 -9.15 22.74 -10.25 23.12 C-14 24 -14 24 -16.25 23.38 C-18.26 21.8 -19.59 20.12 -21 18 C-21.33 18.66 -21.66 19.32 -22 20 C-22.99 20 -23.98 20 -25 20 C-25.33 19.34 -25.66 18.68 -26 18 C-26.99 19.32 -27.98 20.64 -29 22 C-31.47 21.01 -31.47 21.01 -34 20 C-34 18.68 -34 17.36 -34 16 C-34.66 15.67 -35.32 15.34 -36 15 C-35.01 14.67 -34.02 14.34 -33 14 C-33 15.65 -33 17.3 -33 19 C-32.4 18.4 -31.8 17.8 -31.19 17.19 C-29.46 15.46 -27.73 13.73 -26 12 C-26 12.66 -26 13.32 -26 14 C-25.34 14 -24.68 14 -24 14 C-23.67 14.99 -23.34 15.98 -23 17 C-21.68 16.01 -20.36 15.02 -19 14 C-19 15.32 -19 16.64 -19 18 C-18.34 18 -17.68 18 -17 18 C-16.75 17.22 -16.5 16.43 -16.25 15.62 C-14.85 12.68 -13.99 12.1 -11 11 C-11.81 14.44 -11.81 14.44 -13 18 C-13.99 18.33 -14.98 18.66 -16 19 C-16 19.99 -16 20.98 -16 22 C-12.73 21.25 -12.73 21.25 -11.06 18.06 C-9 15 -9 15 -7.01 14.19 C-4 12.41 -3.77 10.22 -2.81 6.94 C-1.06 1.06 -1.06 1.06 0 0 Z " fill="#414141" transform="translate(190,243)"/>
<path d="M0 0 C0.66 0 1.32 0 2 0 C0.92 3.46 -0.67 5.99 -2.88 8.81 C-6.36 13.33 -10 18.14 -10 24 C-11.88 27.19 -11.88 27.19 -14 30 C-14.66 30 -15.32 30 -16 30 C-14.79 26.28 -13.49 22.62 -12 19 C-14.29 18.14 -14.29 18.14 -17 18 C-19.33 19.83 -19.33 19.83 -21 22 C-20.34 20.02 -19.68 18.04 -19 16 C-21.56 14.86 -21.56 14.86 -25 15 C-27.48 16.6 -29.64 18.39 -31.85 20.34 C-34 22 -35.3 22.78 -38 23 C-40 21 -40 21 -40.38 17.75 C-39.94 13.43 -38.64 11.38 -36 8 C-36 10.92 -36.41 13.34 -37 16.19 C-37.19 17.09 -37.37 17.99 -37.56 18.92 C-37.71 19.61 -37.85 20.29 -38 21 C-33.87 19.08 -30.47 16.96 -27 14 C-28.98 12.68 -30.96 11.36 -33 10 C-32.34 9.67 -31.68 9.34 -31 9 C-30.1 9.5 -30.1 9.5 -29.19 10 C-26.26 11.34 -25.02 11.1 -22 10 C-19.21 7.54 -19.21 7.54 -17 5 C-16.34 5.33 -15.68 5.66 -15 6 C-17.31 8.64 -19.62 11.28 -22 14 C-20.35 14 -18.7 14 -17 14 C-15.14 12.01 -13.7 10.23 -12.19 8 C-11.78 7.43 -11.37 6.86 -10.96 6.27 C-9.96 4.85 -8.98 3.43 -8 2 C-7.5 2.99 -7.5 2.99 -7 4 C-7.49 4.69 -7.99 5.37 -8.5 6.08 C-9.46 7.43 -9.46 7.43 -10.44 8.81 C-11.08 9.71 -11.71 10.6 -12.37 11.52 C-14.13 13.97 -14.13 13.97 -15 17 C-13.35 17.33 -11.7 17.66 -10 18 C-9.79 17.22 -9.59 16.43 -9.38 15.62 C-7.25 10.01 -4.27 4.27 0 0 Z " fill="#3E3E3E" transform="translate(163,237)"/>
<path d="M0 0 C0.66 0 1.32 0 2 0 C3.21 5.1 4.17 10.12 4.88 15.31 C5.71 21.02 7.23 26.22 9.2 31.64 C10 34 10 34 10 36 C9.34 36 8.68 36 8 36 C6.02 30.56 6.02 30.56 4 25 C0 26.5 0 26.5 -1 29 C-4.61 30.45 -7.07 31 -11 31 C-10.01 30.34 -9.02 29.68 -8 29 C-7.42 26.11 -7.42 26.11 -7.31 22.88 C-7.25 21.78 -7.18 20.68 -7.11 19.55 C-7.08 18.71 -7.04 17.87 -7 17 C-6.01 17 -5.02 17 -4 17 C-2.71 24.43 -2.71 24.43 -4 28 C-3.34 28 -2.68 28 -2 28 C-2 24.7 -2 21.4 -2 18 C-0.68 17.34 0.64 16.68 2 16 C1.67 15.03 1.34 14.06 1 13.06 C-0.27 8.7 -0.18 4.5 0 0 Z " fill="#4D4D4D" transform="translate(245,227)"/>
<path d="M0 0 C0.66 0 1.32 0 2 0 C2.33 4.95 2.66 9.9 3 15 C3.66 15 4.32 15 5 15 C4.9 16.04 4.81 17.08 4.71 18.15 C4.05 26.1 3.74 33.23 6 41 C5.34 41 4.68 41 4 41 C2.71 36.88 1.74 33.33 2 29 C0.68 28.67 -0.64 28.34 -2 28 C-2 27.34 -2 26.68 -2 26 C-2.66 26 -3.32 26 -4 26 C-4 26.99 -4 27.98 -4 29 C-4.99 29 -5.98 29 -7 29 C-7 27.02 -7 25.04 -7 23 C-6.34 23.66 -5.68 24.32 -5 25 C-4.67 24.34 -4.34 23.68 -4 23 C-3.34 23 -2.68 23 -2 23 C-1.67 24.32 -1.34 25.64 -1 27 C-0.34 27 0.32 27 1 27 C0.86 25.79 0.71 24.59 0.56 23.34 C0.37 21.73 0.19 20.11 0 18.5 C-0.1 17.71 -0.19 16.92 -0.29 16.1 C-0.87 11.03 -1.18 6.1 -1 1 C-0.67 0.67 -0.34 0.34 0 0 Z " fill="#2F2F2F" transform="translate(230,231)"/>
<path d="M0 0 C2.34 0.26 4.68 0.59 7 1 C7.33 1.66 7.66 2.32 8 3 C5.36 2.67 2.72 2.34 0 2 C0.72 5.3 0.72 5.3 4.06 6.69 C5.03 7.12 6 7.55 7 8 C1.17 13.99 1.17 13.99 -2 16 C-2.99 16 -3.98 16 -5 16 C-5.62 9.09 -4.11 5.52 0 0 Z " fill="#DBDBDB" transform="translate(130,242)"/>
<path d="M0 0 C1.32 0.66 2.64 1.32 4 2 C4 4.97 4 7.94 4 11 C5.32 11 6.64 11 8 11 C8 11.99 8 12.98 8 14 C7.34 14 6.68 14 6 14 C5.34 15.32 4.68 16.64 4 18 C3.67 17.67 3.34 17.34 3 17 C2.67 17.83 2.35 18.66 2.01 19.52 C1.57 20.61 1.14 21.69 0.69 22.81 C0.26 23.89 -0.17 24.97 -0.61 26.08 C-2.63 30.34 -2.63 30.34 -5 32 C-6.32 32 -7.64 32 -9 32 C-10.76 28.91 -11 27.77 -11 24 C-10.34 24 -9.68 24 -9 24 C-8.34 25.98 -7.68 27.96 -7 30 C0.48 24.07 0.63 13.79 1.67 4.96 C1.78 3.99 1.89 3.01 2 2 C1.01 2.33 0.02 2.66 -1 3 C-0.67 2.01 -0.34 1.02 0 0 Z " fill="#484848" transform="translate(220,240)"/>
<path d="M0 0 C-1.42 4.51 -3.65 6.73 -7 10 C-9.07 12.61 -11.05 15.3 -13 18 C-14.65 17.67 -16.3 17.34 -18 17 C-16.38 13.14 -13.88 10.44 -11.06 7.38 C-10.19 6.41 -9.31 5.45 -8.41 4.46 C-4.04 0 -4.04 0 0 0 Z " fill="#D1D1D1" transform="translate(159,234)"/>
<path d="M0 0 C0.66 0 1.32 0 2 0 C0.38 6.75 0.38 6.75 -3 9 C-6.52 8.48 -6.52 8.48 -8 7 C-8.33 7.66 -8.66 8.32 -9 9 C-9.99 9 -10.98 9 -12 9 C-12.33 8.34 -12.66 7.68 -13 7 C-13.99 8.32 -14.98 9.64 -16 11 C-18.47 10.01 -18.47 10.01 -21 9 C-21 7.68 -21 6.36 -21 5 C-21.66 4.67 -22.32 4.34 -23 4 C-22.01 3.67 -21.02 3.34 -20 3 C-20 4.65 -20 6.3 -20 8 C-19.1 7.1 -19.1 7.1 -18.19 6.19 C-16.46 4.46 -14.73 2.73 -13 1 C-13 1.66 -13 2.32 -13 3 C-12.34 3 -11.68 3 -11 3 C-10.67 3.99 -10.34 4.98 -10 6 C-8.68 5.01 -7.36 4.02 -6 3 C-6 4.32 -6 5.64 -6 7 C-5.34 7 -4.68 7 -4 7 C-3.71 6.22 -3.42 5.43 -3.12 4.62 C-2 2 -2 2 0 0 Z " fill="#363636" transform="translate(177,254)"/>
<path d="M0 0 C0.66 0 1.32 0 2 0 C0.92 3.46 -0.67 5.99 -2.88 8.81 C-6.36 13.33 -10 18.14 -10 24 C-11.88 27.19 -11.88 27.19 -14 30 C-14.66 30 -15.32 30 -16 30 C-14.79 26.28 -13.49 22.62 -12 19 C-13.32 18.34 -14.64 17.68 -16 17 C-14.02 17.33 -12.04 17.66 -10 18 C-9.79 17.22 -9.59 16.43 -9.38 15.62 C-7.25 10.01 -4.27 4.27 0 0 Z " fill="#353535" transform="translate(163,237)"/>
<path d="M0 0 C0.99 0 1.98 0 3 0 C4.29 7.43 4.29 7.43 3 11 C3.66 11 4.32 11 5 11 C5.66 8.69 6.32 6.38 7 4 C7.66 5.32 8.32 6.64 9 8 C7.28 10.87 6.19 11.92 3.06 13.25 C0 14 0 14 -4 14 C-3.01 13.34 -2.02 12.68 -1 12 C-0.42 9.11 -0.42 9.11 -0.31 5.88 C-0.25 4.78 -0.18 3.68 -0.11 2.55 C-0.08 1.71 -0.04 0.87 0 0 Z " fill="#222222" transform="translate(238,244)"/>
<path d="M0 0 C0.66 0 1.32 0 2 0 C3.9 7.13 4.22 13.64 4 21 C0.31 17.31 0.11 11.4 -0.12 6.34 C-0.12 4.23 -0.07 2.11 0 0 Z " fill="#272727" transform="translate(245,227)"/>
<path d="M0 0 C0.66 0 1.32 0 2 0 C0.38 6.75 0.38 6.75 -3 9 C-5.19 8.62 -5.19 8.62 -7 8 C-7 7.34 -7 6.68 -7 6 C-7.66 5.67 -8.32 5.34 -9 5 C-8.01 4.34 -7.02 3.68 -6 3 C-6 4.32 -6 5.64 -6 7 C-5.34 7 -4.68 7 -4 7 C-3.71 6.22 -3.42 5.43 -3.12 4.62 C-2 2 -2 2 0 0 Z " fill="#1E1E1E" transform="translate(177,254)"/>
<path d="M0 0 C0.33 0 0.66 0 1 0 C1 3.63 1 7.26 1 11 C-0.32 11.33 -1.64 11.66 -3 12 C-3.29 4.5 -3.29 4.5 -1 1 C-0.67 0.67 -0.34 0.34 0 0 Z " fill="#B8B8B8" transform="translate(237,245)"/>
<path d="M0 0 C0.66 0 1.32 0 2 0 C2.05 1.77 2.09 3.54 2.12 5.31 C2.15 6.3 2.17 7.28 2.2 8.3 C2 11 2 11 0 14 C-1.1 9.58 -1.15 5.53 -1 1 C-0.67 0.67 -0.34 0.34 0 0 Z " fill="#2A2A2A" transform="translate(230,231)"/>
<path d="M0 0 C0.66 0 1.32 0 2 0 C1.86 1.26 1.71 2.52 1.56 3.81 C1.25 6.55 0.98 9.27 0.78 12.01 C0.71 13 0.64 13.98 0.56 15 C0.5 15.93 0.44 16.86 0.38 17.81 C0.25 18.53 0.13 19.26 0 20 C-0.66 20.33 -1.32 20.66 -2 21 C-2.28 13.83 -1.2 7.05 0 0 Z " fill="#272727" transform="translate(184,258)"/>
<path d="M0 0 C0.66 0 1.32 0 2 0 C1.74 1.44 1.47 2.88 1.19 4.31 C1.04 5.11 0.89 5.91 0.73 6.74 C-0.08 9.23 -1.02 10.32 -3 12 C-3.35 7.12 -2.42 4.23 0 0 Z " fill="#191919" transform="translate(190,243)"/>
<path d="M0 0 C0.33 0 0.66 0 1 0 C1.95 4.77 2.24 9.15 2 14 C1.34 14.66 0.68 15.32 0 16 C-0.2 13.9 -0.38 11.79 -0.56 9.69 C-0.67 8.52 -0.77 7.34 -0.88 6.14 C-1 3 -1 3 0 0 Z " fill="#4C4C4C" transform="translate(231,242)"/>
<path d="M0 0 C0.66 0.99 1.32 1.98 2 3 C1.67 3.99 1.34 4.98 1 6 C0.01 6 -0.98 6 -2 6 C-2.1 6.78 -2.21 7.57 -2.31 8.38 C-3 11 -3 11 -6 13 C-5.75 9.62 -5.75 9.62 -5 6 C-3 4.81 -3 4.81 -1 4 C-0.19 1.95 -0.19 1.95 0 0 Z " fill="#747474" transform="translate(186,252)"/>
<path d="M0 0 C0.66 0 1.32 0 2 0 C0.61 4.43 -1.61 6.87 -5 10 C-4.5 5.62 -3.02 3.2 0 0 Z " fill="#2B2B2B" transform="translate(163,237)"/>
<path d="M0 0 C0.33 0 0.66 0 1 0 C1 2.97 1 5.94 1 9 C2.32 9 3.64 9 5 9 C5 9.99 5 10.98 5 12 C4.34 12 3.68 12 3 12 C2.34 13.32 1.68 14.64 1 16 C1 14.35 1 12.7 1 11 C0.67 11 0.34 11 0 11 C0 7.37 0 3.74 0 0 Z " fill="#9A9A9A" transform="translate(223,242)"/>
<path d="M0 0 C0.99 0 1.98 0 3 0 C3 0.99 3 1.98 3 3 C2.01 3 1.02 3 0 3 C-0.33 5.97 -0.66 8.94 -1 12 C-1.66 11.67 -2.32 11.34 -3 11 C-2.69 9.35 -2.38 7.71 -2.06 6.06 C-1.89 5.15 -1.71 4.23 -1.54 3.29 C-1 1 -1 1 0 0 Z " fill="#545454" transform="translate(202,239)"/>
<path d="M0 0 C0.99 0.5 0.99 0.5 2 1 C2.41 3.07 2.41 3.07 2.62 5.56 C2.7 6.39 2.77 7.22 2.85 8.07 C2.93 9.02 2.93 9.02 3 10 C2.01 10 1.02 10 0 10 C0 6.7 0 3.4 0 0 Z " fill="#535353" transform="translate(195,269)"/>
<path d="M0 0 C0.66 0 1.32 0 2 0 C1.12 4.75 1.12 4.75 0 7 C-0.66 7 -1.32 7 -2 7 C-2.12 4.62 -2.12 4.62 -2 2 C-1.34 1.34 -0.68 0.68 0 0 Z " fill="#5F5F5F" transform="translate(245,243)"/>
<path d="M0 0 C0.99 0.33 1.98 0.66 3 1 C1.73 3.04 0.39 5.04 -1 7 C-1.66 7 -2.32 7 -3 7 C-1.12 1.12 -1.12 1.12 0 0 Z " fill="#292929" transform="translate(150,260)"/>
<path d="M0 0 C0.66 0.66 1.32 1.32 2 2 C1.62 4.62 1.62 4.62 1 7 C0.34 7 -0.32 7 -1 7 C-1.04 5 -1.04 3 -1 1 C-0.67 0.67 -0.34 0.34 0 0 Z " fill="#FAFAFA" transform="translate(236,250)"/>
<path d="M0 0 C1.98 2.92 1.99 4.12 1.62 7.75 C1.42 8.82 1.21 9.9 1 11 C-1.79 6.82 -0.8 4.85 0 0 Z " fill="#7E7E7E" transform="translate(240,244)"/>
<path d="M0 0 C-0.66 1.65 -1.32 3.3 -2 5 C-2.99 5 -3.98 5 -5 5 C-5 4.01 -5 3.02 -5 2 C-2 0 -2 0 0 0 Z " fill="#F4F4F4" transform="translate(179,260)"/>
<path d="M0 0 C0.99 0 1.98 0 3 0 C2.34 1.32 1.68 2.64 1 4 C0.01 4 -0.98 4 -2 4 C-1.34 2.68 -0.68 1.36 0 0 Z " fill="#171717" transform="translate(161,259)"/>
<path d="M0 0 C0.66 0 1.32 0 2 0 C0.63 3.16 0.01 3.99 -3 6 C-2.43 3.13 -2.14 2.14 0 0 Z " fill="#1B1B1B" transform="translate(177,254)"/>
<path d="M0 0 C0.87 0.34 0.87 0.34 1.75 0.69 C-1.48 2.84 -2.53 2.89 -6.25 2.69 C-2.8 -0.39 -2.8 -0.39 0 0 Z " fill="#FDD8E1" transform="translate(169.25,95.3125)"/>
<path d="M0 0 C0.66 0.99 1.32 1.98 2 3 C1.67 3.99 1.34 4.98 1 6 C0.01 5.67 -0.98 5.34 -2 5 C-1.34 3.35 -0.68 1.7 0 0 Z " fill="#4C4C4C" transform="translate(186,252)"/>
<path d="M0 0 C0.99 0 1.98 0 3 0 C3 0.99 3 1.98 3 3 C1.68 3 0.36 3 -1 3 C-0.67 2.01 -0.34 1.02 0 0 Z " fill="#565656" transform="translate(202,239)"/>
<path d="M0 0 C0.99 0 1.98 0 3 0 C2.34 1.65 1.68 3.3 1 5 C0.34 3.68 -0.32 2.36 -1 1 C-0.67 0.67 -0.34 0.34 0 0 Z " fill="#2F2F2F" transform="translate(156,234)"/>
<path d="M0 0 C0.66 0.66 1.32 1.32 2 2 C1.01 2.66 0.02 3.32 -1 4 C-1.66 3.67 -2.32 3.34 -3 3 C-2 1 -2 1 0 0 Z " fill="#474747" transform="translate(176,258)"/>
<path d="M0 0 C0.66 0.99 1.32 1.98 2 3 C1.01 3.66 0.02 4.32 -1 5 C-0.67 3.35 -0.34 1.7 0 0 Z " fill="#202020" transform="translate(180,259)"/>
<path d="M0 0 C0.66 0.99 1.32 1.98 2 3 C0.68 3.33 -0.64 3.66 -2 4 C-1.34 2.68 -0.68 1.36 0 0 Z " fill="#444444" transform="translate(163,255)"/>
<path d="M0 0 C0.66 0 1.32 0 2 0 C2 0.99 2 1.98 2 3 C1.01 3.33 0.02 3.66 -1 4 C-0.67 2.68 -0.34 1.36 0 0 Z " fill="#222222" transform="translate(190,243)"/>
<path d="M0 0 C0.99 0 1.98 0 3 0 C2.34 1.32 1.68 2.64 1 4 C0.67 2.68 0.34 1.36 0 0 Z " fill="#191919" transform="translate(158,243)"/>
<path d="M0 0 C0.66 0 1.32 0 2 0 C1.67 0.99 1.34 1.98 1 3 C0.34 2.34 -0.32 1.68 -1 1 C-0.67 0.67 -0.34 0.34 0 0 Z " fill="#111111" transform="translate(163,237)"/>
<path d="M0 0 C0.66 0.66 1.32 1.32 2 2 C1.01 2 0.02 2 -1 2 C-0.67 1.34 -0.34 0.68 0 0 Z " fill="#7B7B7B" transform="translate(176,258)"/>
</svg>
